<?xml version="1.0" encoding="UTF-8" standalone="no"?><!DOCTYPE svg PUBLIC "-//W3C//DTD SVG 1.1//EN" "http://www.w3.org/Graphics/SVG/1.1/DTD/svg11.dtd"><svg width="100%" height="100%" viewBox="0 0 187 120" version="1.1" xmlns="http://www.w3.org/2000/svg" xmlns:xlink="http://www.w3.org/1999/xlink" xml:space="preserve" style="fill-rule:evenodd;clip-rule:evenodd;stroke-linecap:square;stroke-linejoin:round;stroke-miterlimit:1.5;"><rect x="37.216" y="11.292" width="105.053" height="97.523" style="fill:#0b3f63;stroke:#f1c40f;stroke-width:4.98px;"/><path d="M67.095,26.732l38.152,0l0,64.194l-38.152,0l0,-64.194Z" style="fill:#5a6470;fill-rule:nonzero;"/><path d="M97.215,95.682l-30.12,-4.756l0,-64.194l30.12,4.756l0,64.194Z" style="fill:#f1c40f;fill-rule:nonzero;"/><path d="M93.199,61.207c0,1.313 -0.9,2.377 -2.009,2.377c-1.108,0 -2.007,-1.064 -2.007,-2.377c0,-1.313 0.899,-2.377 2.007,-2.377c1.109,0 2.009,1.064 2.009,2.377Z" style="fill:#fcf05a;fill-rule:nonzero;"/><path d="M91.19,64.774c-1.663,0 -3.011,-1.597 -3.011,-3.567c0,-1.97 1.348,-3.567 3.011,-3.567c1.664,0 3.013,1.597 3.013,3.567c-0.002,1.968 -1.35,3.564 -3.013,3.567Zm0,-4.756c-0.554,0 -1.003,0.533 -1.003,1.189c0,0.657 0.449,1.189 1.003,1.189c0.556,0 1.005,-0.532 1.005,-1.189c-0.001,-0.656 -0.45,-1.188 -1.005,-1.189Z" style="fill:#fcf05a;fill-rule:nonzero;"/><path d="M101.231,43.375l12.048,0l0,9.511l-12.048,0l0,-9.511Z" style="fill:#e9686a;fill-rule:nonzero;"/><path d="M113.279,56.452l0,-16.643l10.04,8.322l-10.04,8.321Z" style="fill:#e9686a;fill-rule:nonzero;"/><path d="M89.183,40.998l-14.057,-2.378l0,-4.755l14.057,2.378l0,4.755Z" style="fill:#fff;fill-rule:nonzero;"/><path d="M91.19,57.641c-1.663,0 -3.011,1.596 -3.011,3.566c0,1.97 1.348,3.567 3.011,3.567c1.664,0 3.013,-1.597 3.013,-3.567c-0.002,-1.968 -1.35,-3.564 -3.013,-3.566Zm0,4.755c-0.554,0 -1.003,-0.532 -1.003,-1.189c0,-0.656 0.449,-1.189 1.003,-1.189c0.556,0 1.005,0.533 1.005,1.189c-0.001,0.657 -0.45,1.188 -1.005,1.189Z" style="fill-rule:nonzero;"/><path d="M123.894,47.157l-10.04,-8.322c-0.453,-0.377 -1.079,-0.246 -1.397,0.292c-0.119,0.199 -0.182,0.438 -0.182,0.682l0,2.378l-6.024,0l0,-15.455c0,-0.656 -0.449,-1.188 -1.004,-1.188l-38.152,0c-0.114,0.015 -0.226,0.042 -0.335,0.08c-0.078,0.037 -0.152,0.085 -0.221,0.144c-0.034,0.027 -0.118,0.092 -0.126,0.101c-0.089,0.119 -0.168,0.249 -0.236,0.387c-0.056,0.149 -0.086,0.312 -0.087,0.476l0,64.194c0.001,0.153 0.027,0.303 0.076,0.444c0.057,0.128 0.124,0.25 0.2,0.365c0.036,0.041 0.076,0.078 0.117,0.111c0.055,0.056 0.116,0.104 0.18,0.143c0.097,0.049 0.197,0.087 0.299,0.116l30.12,4.755c0.044,0.007 0.088,0.01 0.132,0.01c0.554,0.001 1.004,-0.531 1.005,-1.186c0,-0.001 0,-0.002 0,-0.002l0,-3.567l7.028,0c0.554,0 1.004,-0.531 1.004,-1.188l0,-0.001l0,-36.851l6.024,0l0,2.377c0,0.656 0.45,1.188 1.004,1.189c0.205,0 0.407,-0.075 0.575,-0.215l10.04,-8.321c0.455,-0.376 0.566,-1.118 0.248,-1.655c-0.067,-0.115 -0.151,-0.214 -0.248,-0.293l0,0Zm-27.683,47.167l-28.113,-4.439l0,-61.795l28.113,4.439l0,61.795Zm8.032,-4.586l-6.024,0l0,-58.25c0,-0.596 -0.373,-1.1 -0.872,-1.179l-15.126,-2.388l22.022,0l0,14.266l-3.012,0c-0.554,-0.001 -1.004,0.531 -1.004,1.188l0,9.51c0,0.657 0.449,1.189 1.003,1.19l3.013,0l0,35.663Zm-2.008,-38.041l0,-7.133l10.04,0l0,7.133l-10.04,0Zm12.048,2.472l0,-12.077l7.285,6.039l-7.285,6.038Z" style="fill-rule:nonzero;"/><path d="M89.183,42.187c0.554,0 1.004,-0.532 1.004,-1.189l0,-4.755c0,-0.591 -0.368,-1.093 -0.862,-1.176l-14.057,-2.378c-0.548,-0.093 -1.057,0.358 -1.136,1.008c-0.006,0.055 -0.01,0.112 -0.01,0.168l0,4.755c0,0.592 0.368,1.093 0.862,1.177l14.056,2.378c0.047,0.008 0.095,0.012 0.143,0.012Zm-1.004,-2.559l-12.049,-2.038l0,-2.354l12.049,2.038l0,2.354Z" style="fill-rule:nonzero;"/></svg>
