<?xml version="1.0" encoding="UTF-8" standalone="no"?><!DOCTYPE svg PUBLIC "-//W3C//DTD SVG 1.1//EN" "http://www.w3.org/Graphics/SVG/1.1/DTD/svg11.dtd"><svg width="100%" height="100%" viewBox="0 0 187 120" version="1.1" xmlns="http://www.w3.org/2000/svg" xmlns:xlink="http://www.w3.org/1999/xlink" xml:space="preserve" style="fill-rule:evenodd;clip-rule:evenodd;stroke-linecap:square;stroke-linejoin:round;stroke-miterlimit:1.5;"><rect x="37.216" y="11.292" width="105.053" height="97.523" style="fill:#0b3f63;stroke:#f1c40f;stroke-width:4.98px;"/><g><path d="M75.328,90.925l30.676,0c3.172,0 5.752,-2.407 5.752,-5.365l0,-34.094l5.752,0c1.059,0 1.918,-0.801 1.918,-1.788c0,-0.988 -0.859,-1.789 -1.918,-1.789l-2.052,0c-0.926,-6.124 -6.53,-10.848 -13.286,-10.848l-1.917,0l0,-1.788c0,-2.958 -2.581,-5.364 -5.752,-5.364l-7.669,0c-3.172,0 -5.752,2.406 -5.752,5.364l0,1.788l-1.918,0c-6.755,0 -12.36,4.724 -13.286,10.848l-2.052,0c-1.059,0 -1.917,0.801 -1.917,1.789c0,0.987 0.858,1.788 1.917,1.788l5.752,0l0,34.094c0,2.958 2.58,5.365 5.752,5.365Zm32.594,-5.365c0,0.986 -0.861,1.788 -1.918,1.788l-30.676,0c-1.057,0 -1.918,-0.802 -1.918,-1.788l0,-34.094l34.512,0l0,34.094Zm-23.008,-50.307c0,-0.986 0.861,-1.788 1.918,-1.788l7.669,0c1.057,0 1.917,0.802 1.917,1.788l0,1.788l-11.504,0l0,-1.788Zm-5.752,5.365l23.008,0c4.638,0 8.517,3.129 9.398,7.271l-41.804,0c0.881,-4.142 4.76,-7.271 9.398,-7.271l0,0Z" style="fill:#f1c40f;fill-rule:nonzero;"/><path d="M81.08,80.196c1.059,0 1.917,-0.801 1.917,-1.788l0,-18.001c0,-0.988 -0.858,-1.789 -1.917,-1.789c-1.059,0 -1.918,0.801 -1.918,1.789l0,18.001c0,0.987 0.859,1.788 1.918,1.788Z" style="fill:#f1c40f;fill-rule:nonzero;"/><path d="M90.666,80.196c1.059,0 1.917,-0.801 1.917,-1.788l0,-18.001c0,-0.988 -0.858,-1.789 -1.917,-1.789c-1.059,0 -1.917,0.801 -1.917,1.789l0,18.001c0,0.987 0.858,1.788 1.917,1.788Z" style="fill:#f1c40f;fill-rule:nonzero;"/><path d="M100.253,80.196c1.059,0 1.917,-0.801 1.917,-1.788l0,-18.001c0,-0.988 -0.858,-1.789 -1.917,-1.789c-1.059,0 -1.918,0.801 -1.918,1.789l0,18.001c0,0.987 0.859,1.788 1.918,1.788Z" style="fill:#f1c40f;fill-rule:nonzero;"/></g></svg>
