<?xml version="1.0" encoding="UTF-8" standalone="no"?><!DOCTYPE svg PUBLIC "-//W3C//DTD SVG 1.1//EN" "http://www.w3.org/Graphics/SVG/1.1/DTD/svg11.dtd"><svg width="100%" height="100%" viewBox="0 0 187 120" version="1.1" xmlns="http://www.w3.org/2000/svg" xmlns:xlink="http://www.w3.org/1999/xlink" xml:space="preserve" style="fill-rule:evenodd;clip-rule:evenodd;stroke-linecap:square;stroke-linejoin:round;stroke-miterlimit:1.5;"><rect x="37.216" y="11.292" width="105.053" height="97.523" style="fill:#0b3f63;stroke:#f1c40f;stroke-width:4.98px;"/><path id="XMLID_224_" d="M131.461,39.244l-10.647,-9.816c-1.47,-1.355 -3.854,-1.356 -5.324,0l-38.011,35.042l-10.647,-9.816c-0.706,-0.651 -1.664,-1.017 -2.662,-1.017c-0.998,0 -1.956,0.366 -2.662,1.017l-10.648,9.816c-1.47,1.355 -1.47,3.553 0,4.908l23.957,22.086c0.705,0.651 1.663,1.017 2.661,1.017c0.999,0 1.956,-0.366 2.662,-1.017l51.321,-47.313c0.706,-0.65 1.103,-1.533 1.103,-2.453c0,-0.921 -0.397,-1.804 -1.103,-2.454Zm-53.982,44.859l-18.633,-17.179l5.324,-4.908l10.648,9.816c0.706,0.651 1.663,1.017 2.661,1.017c0.999,0 1.956,-0.366 2.662,-1.017l38.011,-35.043l5.324,4.908l-45.997,42.406Z" style="fill:#f1c40f;fill-rule:nonzero;"/></svg>
