<?xml version="1.0" encoding="UTF-8" standalone="no"?><!DOCTYPE svg PUBLIC "-//W3C//DTD SVG 1.1//EN" "http://www.w3.org/Graphics/SVG/1.1/DTD/svg11.dtd"><svg width="100%" height="100%" viewBox="0 0 187 120" version="1.1" xmlns="http://www.w3.org/2000/svg" xmlns:xlink="http://www.w3.org/1999/xlink" xml:space="preserve" style="fill-rule:evenodd;clip-rule:evenodd;stroke-linecap:square;stroke-linejoin:round;stroke-miterlimit:1.5;"><rect x="37.216" y="11.292" width="105.053" height="97.523" style="fill:#0b3f63;stroke:#f1c40f;stroke-width:4.98px;"/><path d="M130.873,61.362c0.608,-0.89 0.608,-2.091 0,-2.98c-4.968,-7.268 -14.586,-17.123 -24.508,-22.248c-5.435,-2.807 -10.833,-4.231 -16.044,-4.231c-5.211,0 -10.609,1.424 -16.043,4.23c-9.809,5.068 -19.484,14.897 -24.509,22.249c-0.607,0.889 -0.607,2.09 0,2.98c4.968,7.267 14.587,17.123 24.509,22.248c5.434,2.807 10.832,4.231 16.043,4.231c10.72,0 20.732,-5.97 28.83,-13.327c7.13,-6.478 11.538,-12.883 11.722,-13.152Zm-40.552,21.393c-13.604,0 -27.125,-11.77 -35.565,-22.883c4.028,-5.295 18.681,-22.884 35.565,-22.884c13.593,0 27.115,11.755 35.565,22.883c-4.028,5.296 -18.681,22.884 -35.565,22.884Z" style="fill:#f1c40f;fill-rule:nonzero;"/><path d="M90.321,42.073c-9.274,0 -16.819,7.985 -16.819,17.799c0,9.814 7.545,17.798 16.819,17.798c9.275,0 16.82,-7.984 16.82,-17.798c0,-9.814 -7.545,-17.799 -16.82,-17.799Zm0,30.512c-6.624,0 -12.014,-5.703 -12.014,-12.713c0,-7.01 5.39,-12.713 12.014,-12.713c6.625,0 12.014,5.703 12.014,12.713c0,7.01 -5.389,12.713 -12.014,12.713Z" style="fill:#f1c40f;fill-rule:nonzero;"/><path d="M90.321,52.244c-3.974,0 -7.208,3.422 -7.208,7.628c0,4.206 3.234,7.628 7.208,7.628c3.975,0 7.208,-3.422 7.208,-7.628c0,-4.206 -3.233,-7.628 -7.208,-7.628Zm0,10.17c-1.324,0 -2.403,-1.14 -2.403,-2.542c0,-1.402 1.079,-2.543 2.403,-2.543c1.325,0 2.403,1.141 2.403,2.543c0,1.402 -1.078,2.542 -2.403,2.542Z" style="fill:#f1c40f;fill-rule:nonzero;"/></svg>
