<?xml version="1.0" encoding="UTF-8" standalone="no"?>
<!DOCTYPE svg PUBLIC "-//W3C//DTD SVG 1.1//EN" "http://www.w3.org/Graphics/SVG/1.1/DTD/svg11.dtd">
<svg width="100%" height="100%" viewBox="0 0 480 480" version="1.1" xmlns="http://www.w3.org/2000/svg" xmlns:xlink="http://www.w3.org/1999/xlink" xml:space="preserve" style="fill-rule:evenodd;clip-rule:evenodd;stroke-linejoin:round;stroke-miterlimit:1.41421;">
    <g transform="matrix(0.685416,0,0,0.889514,-137.111,-127.661)">
        <rect x="-14.343" y="-15.51" width="1125.23" height="792.475" style="fill:rgb(11,63,99);"/>
    </g>
    <g transform="matrix(1,0,0,1,-301.716,-52.7608)">
        <g transform="matrix(0.494283,0.318862,-0.197935,0.306828,445.22,-93.0234)">
            <rect x="348.394" y="555.362" width="341.722" height="47.031" style="fill:rgb(9,116,191);"/>
        </g>
        <g transform="matrix(0.212448,-0.463368,0.405397,0.185869,116.806,402.186)">
            <rect x="348.394" y="555.362" width="341.722" height="47.031" style="fill:rgb(119,149,234);"/>
        </g>
        <g transform="matrix(1,0,0,1,163.106,-1.50095)">
            <ellipse cx="261.837" cy="351.979" rx="20.513" ry="19.763" style="fill:rgb(255,243,102);"/>
        </g>
        <g transform="matrix(1,0,0,1,235.653,-156.104)">
            <ellipse cx="261.837" cy="351.979" rx="20.513" ry="19.763" style="fill:rgb(255,243,102);"/>
        </g>
        <g transform="matrix(1,0,0,1,422.322,-36.5863)">
            <ellipse cx="261.837" cy="351.979" rx="20.513" ry="19.763" style="fill:rgb(255,243,102);"/>
        </g>
    </g>
</svg>
